<svg width="14" height="14" viewBox="0 0 14 14" fill="none" xmlns="http://www.w3.org/2000/svg">
<path d="M6.99994 0C7.32211 0 7.58328 0.261169 7.58328 0.583339V1.75001C7.58328 2.07218 7.32211 2.33335 6.99994 2.33335C6.67777 2.33335 6.41661 2.07218 6.41661 1.75001L6.4166 0.583338C6.4166 0.261169 6.67777 0 6.99994 0ZM2.04905 2.04904C2.27685 1.82124 2.6462 1.82124 2.87401 2.04904L3.70235 2.87738C3.93016 3.10519 3.93016 3.47454 3.70235 3.70235C3.47454 3.93016 3.10519 3.93016 2.87739 3.70235L2.04905 2.87401C1.82124 2.6462 1.82124 2.27685 2.04905 2.04904ZM11.9507 2.87401C12.1785 2.6462 12.1785 2.27685 11.9507 2.04904C11.7229 1.82124 11.3535 1.82124 11.1257 2.04904L10.2974 2.87738C10.0695 3.10519 10.0695 3.47454 10.2974 3.70235C10.5252 3.93016 10.8945 3.93016 11.1223 3.70235L11.9507 2.87401ZM0 6.99994C0 6.67777 0.26117 6.4166 0.583338 6.4166L1.75001 6.4166C2.07218 6.4166 2.33335 6.67777 2.33335 6.99994C2.33335 7.32211 2.07218 7.58328 1.75001 7.58328L0.583338 7.58328C0.26117 7.58328 0 7.32211 0 6.99994ZM12.25 6.4166C11.9278 6.4166 11.6666 6.67777 11.6666 6.99994C11.6666 7.32211 11.9278 7.58328 12.25 7.58328L13.4167 7.58328C13.7388 7.58328 14 7.32211 14 6.99994C14 6.67777 13.7388 6.4166 13.4167 6.4166L12.25 6.4166ZM3.70235 10.2974C3.93016 10.5252 3.93016 10.8945 3.70235 11.1223L2.87401 11.9507C2.6462 12.1785 2.27685 12.1785 2.04905 11.9507C1.82124 11.7228 1.82124 11.3535 2.04905 11.1257L2.87739 10.2974C3.10519 10.0695 3.47454 10.0695 3.70235 10.2974ZM11.1223 10.2974C10.8945 10.0695 10.5252 10.0695 10.2974 10.2974C10.0695 10.5252 10.0695 10.8945 10.2974 11.1223L11.1257 11.9507C11.3535 12.1785 11.7229 12.1785 11.9507 11.9507C12.1785 11.7228 12.1785 11.3535 11.9507 11.1257L11.1223 10.2974ZM6.99994 11.6666C7.32211 11.6666 7.58328 11.9278 7.58328 12.25L7.58328 13.4167C7.58328 13.7388 7.32211 14 6.99994 14C6.67777 14 6.41661 13.7388 6.41661 13.4167L6.4166 12.25C6.4166 11.9278 6.67777 11.6666 6.99994 11.6666ZM10.7699 6.99994C10.7699 9.08163 9.08237 10.7692 7.00068 10.7692C4.91899 10.7692 3.23145 9.08163 3.23145 6.99994C3.23145 4.91825 4.91899 3.23071 7.00068 3.23071C9.08237 3.23071 10.7699 4.91825 10.7699 6.99994ZM9.76991 6.99994C9.76991 8.52935 8.53008 9.76917 7.00068 9.76917C5.47127 9.76917 4.23145 8.52935 4.23145 6.99994C4.23145 5.47054 5.47127 4.23071 7.00068 4.23071C8.53008 4.23071 9.76991 5.47054 9.76991 6.99994Z" fill="#F4F4F5"/>
<path d="M6.99994 0C7.32211 0 7.58328 0.261169 7.58328 0.583339V1.75001C7.58328 2.07218 7.32211 2.33335 6.99994 2.33335C6.67777 2.33335 6.41661 2.07218 6.41661 1.75001L6.4166 0.583338C6.4166 0.261169 6.67777 0 6.99994 0ZM2.04905 2.04904C2.27685 1.82124 2.6462 1.82124 2.87401 2.04904L3.70235 2.87738C3.93016 3.10519 3.93016 3.47454 3.70235 3.70235C3.47454 3.93016 3.10519 3.93016 2.87739 3.70235L2.04905 2.87401C1.82124 2.6462 1.82124 2.27685 2.04905 2.04904ZM11.9507 2.87401C12.1785 2.6462 12.1785 2.27685 11.9507 2.04904C11.7229 1.82124 11.3535 1.82124 11.1257 2.04904L10.2974 2.87738C10.0695 3.10519 10.0695 3.47454 10.2974 3.70235C10.5252 3.93016 10.8945 3.93016 11.1223 3.70235L11.9507 2.87401ZM0 6.99994C0 6.67777 0.26117 6.4166 0.583338 6.4166L1.75001 6.4166C2.07218 6.4166 2.33335 6.67777 2.33335 6.99994C2.33335 7.32211 2.07218 7.58328 1.75001 7.58328L0.583338 7.58328C0.26117 7.58328 0 7.32211 0 6.99994ZM12.25 6.4166C11.9278 6.4166 11.6666 6.67777 11.6666 6.99994C11.6666 7.32211 11.9278 7.58328 12.25 7.58328L13.4167 7.58328C13.7388 7.58328 14 7.32211 14 6.99994C14 6.67777 13.7388 6.4166 13.4167 6.4166L12.25 6.4166ZM3.70235 10.2974C3.93016 10.5252 3.93016 10.8945 3.70235 11.1223L2.87401 11.9507C2.6462 12.1785 2.27685 12.1785 2.04905 11.9507C1.82124 11.7228 1.82124 11.3535 2.04905 11.1257L2.87739 10.2974C3.10519 10.0695 3.47454 10.0695 3.70235 10.2974ZM11.1223 10.2974C10.8945 10.0695 10.5252 10.0695 10.2974 10.2974C10.0695 10.5252 10.0695 10.8945 10.2974 11.1223L11.1257 11.9507C11.3535 12.1785 11.7229 12.1785 11.9507 11.9507C12.1785 11.7228 12.1785 11.3535 11.9507 11.1257L11.1223 10.2974ZM6.99994 11.6666C7.32211 11.6666 7.58328 11.9278 7.58328 12.25L7.58328 13.4167C7.58328 13.7388 7.32211 14 6.99994 14C6.67777 14 6.41661 13.7388 6.41661 13.4167L6.4166 12.25C6.4166 11.9278 6.67777 11.6666 6.99994 11.6666ZM10.7699 6.99994C10.7699 9.08163 9.08237 10.7692 7.00068 10.7692C4.91899 10.7692 3.23145 9.08163 3.23145 6.99994C3.23145 4.91825 4.91899 3.23071 7.00068 3.23071C9.08237 3.23071 10.7699 4.91825 10.7699 6.99994ZM9.76991 6.99994C9.76991 8.52935 8.53008 9.76917 7.00068 9.76917C5.47127 9.76917 4.23145 8.52935 4.23145 6.99994C4.23145 5.47054 5.47127 4.23071 7.00068 4.23071C8.53008 4.23071 9.76991 5.47054 9.76991 6.99994Z" stroke="#E5E7EB"/>
</svg>
